<svg class="svg-shape svg-shape--right" xmlns="http://www.w3.org/2000/svg" x="0px" y="0px" viewBox="0 0 1886 1086">
	<path d="M1848.4,405.1l-242.1,139.4l-242,139.4c-1.8,1.1-3.7,2.1-5.6,3l-161.4,93c-2.3,1.3-4.6,2.5-7,3.7c-1,0.6-2,1.2-3,1.8L945.2,924.9l-242,139.4c-25.1,14.4-57.9,21.7-90.8,21.7c-32.8,0-65.7-7.2-90.8-21.7l-242-139.4l-242-139.4C12.5,771.1,0,752.1,0,733.2s12.5-37.9,37.6-52.3l242-139.4l242-139.4c2.3-1.3,4.6-2.5,7-3.7c1-0.6,2-1.2,3-1.8l242-139.4l242-139.4c1.9-1.1,3.7-2.1,5.7-3.1l161.3-92.9C1207.8,7.2,1240.7,0,1273.5,0s65.7,7.2,90.8,21.7l242,139.4l242.1,139.4c25.1,14.4,37.6,33.4,37.6,52.3S1873.5,390.7,1848.4,405.1z"></path>
	<defs>
		<linearGradient id="svg-gradient__shape-right" gradientUnits="userSpaceOnUse" x1="1839.293" y1="869.2488" x2="46.6911" y2="216.7951" gradientTransform="matrix(1 0 0 -1 0 1086)">
	<stop offset="0" style="stop-color:#101C4F"></stop>
	<stop offset="1" style="stop-color:#223A9F"></stop>
</linearGradient>
	</defs>
</svg>