<svg class="svg-product" width="156" height="156" viewBox="0 0 156 156" fill="none" version="1.1" xmlns="http://www.w3.org/2000/svg" xmlns:xlink="http://www.w3.org/1999/xlink" x="0px" y="0px" style="" xml:space="preserve" data-animation="" data-animation-options="type: packageIcon; delay: 480;">
	<rect width="156" height="156" fill="white"></rect>
		<g class="animation-element" data-animation-shadow="" style="">
			<path class="" opacity="0.08" d="M78.1662 74.9887C77.2112 74.9721 76.2668 75.1917 75.417 75.628C74.7138 76.0116 10.0121 113.158 9.30884 113.541C8.99043 113.679 8.71525 113.9 8.5126 114.181C8.30995 114.463 8.18741 114.794 8.15802 115.139C8.19574 115.483 8.32153 115.81 8.52318 116.09C8.72483 116.37 8.99548 116.593 9.30884 116.738C10.0121 117.121 74.7138 154.267 75.417 154.651C76.2663 155.092 77.2092 155.322 78.1662 155.322C79.1232 155.322 80.0661 155.092 80.9154 154.651C81.6187 154.267 146.32 117.121 147.024 116.738C147.342 116.6 147.617 116.379 147.82 116.098C148.022 115.816 148.145 115.485 148.174 115.139C148.137 114.796 148.011 114.469 147.809 114.189C147.608 113.909 147.337 113.686 147.024 113.541C146.32 113.158 81.6187 76.0116 80.9154 75.628C80.0551 75.2212 79.1177 75.0032 78.1662 74.9887Z" fill="url(#k_paint0_linear)"></path>
		</g>
		<g class="svg-product__bottom animation-element" data-animation-bottom="" style="">
			<path d="M147.855 68.851V87.5198C147.817 87.8629 147.691 88.1903 147.49 88.4704C147.288 88.7505 147.017 88.9736 146.704 89.1182C146.001 89.5018 81.299 126.648 80.5957 127.031C79.7465 127.472 78.8035 127.703 77.8466 127.703C76.8896 127.703 75.9467 127.472 75.0974 127.031C74.3941 126.648 9.69248 89.5018 8.9892 89.1182C8.67079 88.9807 8.39561 88.7595 8.19296 88.478C7.99031 88.1966 7.86777 87.8654 7.83838 87.5198V68.9149V68.5952H7.90231C7.98938 68.3206 8.13035 68.066 8.31697 67.8464C8.5036 67.6269 8.73213 67.4467 8.9892 67.3166C9.69248 66.9329 74.3941 29.2116 75.0974 28.828C75.9467 28.387 76.8896 28.1567 77.8466 28.1567C78.8035 28.1567 79.7465 28.387 80.5957 28.828C81.299 29.2116 146.001 66.9329 146.704 67.3166C146.961 67.4467 147.19 67.6269 147.376 67.8464C147.563 68.066 147.704 68.3206 147.791 68.5952H147.855V68.851Z" fill="url(#k_paint1_linear)"></path>
			<path d="M147.912 68.8319V87.5008C147.875 87.8438 147.749 88.1713 147.547 88.4514C147.346 88.7314 147.075 88.9546 146.762 89.0992C146.058 89.4828 81.3566 126.629 80.6533 127.012C79.804 127.453 78.8611 127.684 77.9041 127.684C76.9472 127.684 76.0042 127.453 75.155 127.012C74.4517 126.629 9.75003 89.4828 9.04675 89.0992C8.72834 88.9617 8.45317 88.7404 8.25052 88.459C8.04787 88.1775 7.92533 87.8464 7.89594 87.5008V68.8959V68.5762H7.95987C8.04694 68.3015 8.18791 68.0469 8.37453 67.8274C8.56115 67.6078 8.78968 67.4277 9.04675 67.2975C9.75003 66.9139 74.4517 29.1926 75.155 28.809C76.0042 28.3679 76.9472 28.1377 77.9041 28.1377C78.8611 28.1377 79.804 28.3679 80.6533 28.809C81.3566 29.1926 146.058 66.9139 146.762 67.2975C147.019 67.4277 147.247 67.6078 147.434 67.8274C147.62 68.0469 147.761 68.3015 147.848 68.5762H147.912V68.8319Z" fill="url(#k_paint2_linear)"></path>
			<path d="M146.704 70.2575C146.001 70.6411 81.299 108.043 80.5957 108.49C79.7465 108.931 78.8035 109.162 77.8465 109.162C76.8896 109.162 75.9466 108.931 75.0974 108.49C74.3941 108.107 9.69246 70.7051 8.98918 70.2575C8.5726 70.1115 8.2278 69.8115 8.02564 69.419C7.82349 69.0266 7.77935 68.5717 7.90229 68.1477C7.99371 67.8985 8.13829 67.6722 8.32598 67.4845C8.51368 67.2968 8.73998 67.1522 8.98918 67.0608C9.69246 66.6772 74.3941 29.2756 75.0974 28.828C75.9466 28.387 76.8896 28.1567 77.8465 28.1567C78.8035 28.1567 79.7465 28.387 80.5957 28.828C81.299 29.2116 146.001 66.6133 146.704 67.0608C146.911 67.1297 147.103 67.2395 147.267 67.3836C147.431 67.5277 147.565 67.7033 147.66 67.8999C147.756 68.0966 147.811 68.3103 147.822 68.5286C147.834 68.7468 147.801 68.9651 147.727 69.1707C147.649 69.4172 147.517 69.6431 147.34 69.8313C147.163 70.0196 146.945 70.1653 146.704 70.2575ZM142.101 66.9329C141.461 66.5493 80.7236 31.1936 80.0203 30.81C79.2187 30.4003 78.3312 30.1867 77.431 30.1867C76.5307 30.1867 75.6433 30.4003 74.8416 30.81C74.2023 31.1936 13.4646 66.5493 12.7613 66.9329C12.4527 67.0449 12.1861 67.2492 11.9977 67.518C11.8093 67.7868 11.7083 68.1071 11.7083 68.4354C11.7083 68.7637 11.8093 69.084 11.9977 69.3528C12.1861 69.6216 12.4527 69.8259 12.7613 69.9379C13.4007 70.3215 74.2023 105.677 74.8416 106.061C75.6433 106.47 76.5307 106.684 77.431 106.684C78.3312 106.684 79.2187 106.47 80.0203 106.061C80.6597 105.677 141.461 70.3215 142.101 69.9379C142.3 69.8701 142.485 69.7627 142.642 69.622C142.799 69.4813 142.926 69.3103 143.016 69.1192C143.106 68.9282 143.156 68.7209 143.163 68.5101C143.171 68.2992 143.135 68.0889 143.06 67.892C142.862 67.4698 142.523 67.1304 142.101 66.9329Z" fill="white" fill-opacity="0.5"></path>
			<path d="M74.9056 105.933C74.3941 105.677 42.4269 87.0724 24.5253 76.715C43.8974 65.5265 74.5859 47.8166 75.0335 47.497C75.8827 47.0559 76.8257 46.8257 77.7826 46.8257C78.7396 46.8257 79.6825 47.0559 80.5318 47.497C81.0433 47.7527 111.284 65.2708 130.72 76.5232C112.883 86.8806 80.5318 105.677 80.0204 105.933C79.2302 106.343 78.3531 106.557 77.463 106.557C76.5729 106.557 75.6958 106.343 74.9056 105.933Z" fill="#333C5E"></path>
			<path opacity="0.32" fill-rule="evenodd" clip-rule="evenodd" d="M15.5505 81.2092C15.7449 80.8852 16.1651 80.7802 16.489 80.9745L19.9095 83.0268C20.2335 83.2212 20.3386 83.6414 20.1442 83.9654C19.9498 84.2894 19.5296 84.3944 19.2056 84.2001L15.7851 82.1478C15.4611 81.9534 15.3561 81.5332 15.5505 81.2092Z" fill="#142149"></path>
			<path opacity="0.48" fill-rule="evenodd" clip-rule="evenodd" d="M15.5505 84.6296C15.7449 84.3056 16.1651 84.2006 16.489 84.395L19.9095 86.4472C20.2335 86.6416 20.3386 87.0618 20.1442 87.3858C19.9498 87.7098 19.5296 87.8148 19.2056 87.6205L15.7851 85.5682C15.4611 85.3738 15.3561 84.9536 15.5505 84.6296Z" fill="#142149"></path>
			<path opacity="0.48" fill-rule="evenodd" clip-rule="evenodd" d="M21.7076 84.6291C21.9023 84.3053 22.3226 84.2006 22.6464 84.3952L26.0605 86.4475C26.3843 86.6422 26.489 87.0625 26.2944 87.3863C26.0997 87.7101 25.6794 87.8148 25.3556 87.6202L21.9415 85.5679C21.6177 85.3732 21.513 84.9529 21.7076 84.6291Z" fill="#142149"></path>
			<path opacity="0.32" fill-rule="evenodd" clip-rule="evenodd" d="M21.7076 88.0432C21.9023 87.7194 22.3226 87.6147 22.6464 87.8093L26.0605 89.8616C26.3843 90.0563 26.489 90.4766 26.2944 90.8004C26.0997 91.1242 25.6794 91.2289 25.3556 91.0342L21.9415 88.9819C21.6177 88.7873 21.513 88.367 21.7076 88.0432Z" fill="#142149"></path>
			<path opacity="0.32" fill-rule="evenodd" clip-rule="evenodd" d="M134.409 83.9175C134.764 83.9175 135.052 84.2052 135.052 84.56V89.0354C135.052 89.3903 134.764 89.678 134.409 89.678C134.055 89.678 133.767 89.3903 133.767 89.0354V84.56C133.767 84.2052 134.055 83.9175 134.409 83.9175Z" fill="#142149"></path>
			<path opacity="0.32" fill-rule="evenodd" clip-rule="evenodd" d="M136.98 82.3125C137.334 82.3125 137.622 82.6002 137.622 82.955V87.4304C137.622 87.7853 137.334 88.073 136.98 88.073C136.625 88.073 136.337 87.7853 136.337 87.4304V82.955C136.337 82.6002 136.625 82.3125 136.98 82.3125Z" fill="#142149"></path>
			<path opacity="0.32" fill-rule="evenodd" clip-rule="evenodd" d="M139.55 80.708C139.905 80.708 140.192 80.9957 140.192 81.3505V86.1712C140.192 86.5261 139.905 86.8137 139.55 86.8137C139.195 86.8137 138.907 86.5261 138.907 86.1712V81.3505C138.907 80.9957 139.195 80.708 139.55 80.708Z" fill="#142149"></path>
			<path opacity="0.32" fill-rule="evenodd" clip-rule="evenodd" d="M142.12 79.4229C142.475 79.4229 142.762 79.7105 142.762 80.0654V84.5408C142.762 84.8957 142.475 85.1833 142.12 85.1833C141.765 85.1833 141.477 84.8957 141.477 84.5408V80.0654C141.477 79.7105 141.765 79.4229 142.12 79.4229Z" fill="#142149"></path>
			<path opacity="0.32" fill-rule="evenodd" clip-rule="evenodd" d="M44.0485 99.7813C44.2294 99.4658 44.6319 99.3566 44.9474 99.5376L69.6452 113.699C69.9608 113.88 70.0699 114.282 69.889 114.598C69.7081 114.913 69.3056 115.022 68.9901 114.842L44.2923 100.68C43.9767 100.499 43.8676 100.097 44.0485 99.7813Z" fill="#142149"></path>
		</g>
		<g class="svg-product__top animation-element" data-animation-top="" style="">
			<path d="M147.912 40.999H8.01385V45.9189C8.01385 46.6906 8.48626 47.8451 9.17456 48.2205C9.87784 48.6041 74.5091 86.2807 75.206 86.6643C76.0553 87.1053 76.9982 87.3356 77.9552 87.3356C78.9122 87.3356 79.8551 87.1053 80.7044 86.6643C81.4205 86.2807 145.82 48.7339 146.761 48.2205C147.703 47.7072 147.912 46.7214 147.912 45.9828V40.999Z" fill="url(#k_paint3_linear)"></path>
			<path d="M78 0C77.0455 0 76.0909 0.191963 75.2636 0.639875C74.5636 1.08779 9.84545 39.0324 9.14545 39.4163C8.50909 39.7362 8.06364 40.3121 8 41.016C8.06364 41.7199 8.50909 42.3597 9.14545 42.6157C9.84545 42.9996 74.5636 80.9442 75.2636 81.3281C76.9818 82.224 79.0182 82.224 80.7364 81.3281C81.4364 80.9442 146.155 42.9996 146.855 42.6157C147.491 42.2957 147.936 41.7199 148 41.016C147.936 40.3121 147.491 39.6723 146.855 39.4163C146.155 38.9684 81.4364 1.08779 80.7364 0.703863C79.9091 0.191963 78.9545 0 78 0Z" fill="url(#k_paint4_linear)"></path>
			<path d="M75.3394 13.5262C75.9651 13.1811 76.7843 13 77.4997 13C78.2151 13 78.9188 13.1811 79.5445 13.5262L102.337 26.6614L125.142 39.808C125.449 39.9416 125.699 40.1781 125.849 40.4763C125.999 40.7744 126.039 41.1154 125.962 41.4399C125.782 41.7881 125.494 42.0699 125.142 42.2443L102.337 55.391L79.5445 68.5376C78.8938 68.8649 78.2283 69.023 77.4997 68.9973C76.7723 69.0109 75.9941 68.8534 75.3394 68.5376L52.535 55.391L29.8577 42.1294C29.5516 41.9979 29.3018 41.7636 29.1518 41.4674C29.0019 41.1712 28.9614 40.8319 29.0375 40.509C29.1075 40.3226 29.217 40.1532 29.3585 40.0124C29.5 39.8717 29.6703 39.7628 29.8577 39.6931L52.6621 26.5464L75.3394 13.5262Z" stroke="#292E47" stroke-width="0.3"></path>
			<path d="M78 21C77.5364 21 77.0727 21.0936 76.6709 21.3121C76.3309 21.5306 44.8964 40.0402 44.5564 40.2275C44.2473 40.3835 44.0309 40.6645 44 41.0078C44.0309 41.3512 44.2473 41.6633 44.5564 41.7881C44.8964 41.9754 76.3309 60.485 76.6709 60.6723C77.5055 61.1092 78.4945 61.1092 79.3291 60.6723C79.6691 60.485 111.104 41.9754 111.444 41.7881C111.753 41.6321 111.969 41.3512 112 41.0078C111.969 40.6645 111.753 40.3523 111.444 40.2275C111.104 40.009 79.6691 21.5306 79.3291 21.3433C78.9273 21.0936 78.4636 21 78 21Z" fill="#292E47"></path>
			<path d="M104.063 35.7333V40.8776C104.051 41.0107 104.004 41.1382 103.926 41.2472C103.849 41.3562 103.744 41.4428 103.622 41.4981L91.3603 48.5475L79.0984 55.5845C78.7492 55.762 78.3604 55.8474 77.969 55.8327C77.5782 55.84 77.1913 55.755 76.8396 55.5845L64.5776 48.5475L52.3777 41.4981C52.256 41.4428 52.1512 41.3562 52.0738 41.2472C51.9964 41.1382 51.9493 41.0107 51.9371 40.8776V35.7271L104.063 35.7333Z" fill="url(#k_paint5_linear)"></path>
			<path d="M76.9023 20.9145C77.2384 20.7282 77.6164 20.6304 78.0007 20.6304C78.385 20.6304 78.7629 20.7282 79.099 20.9145L91.3424 28.0073L103.592 35.1064C103.757 35.1785 103.891 35.3062 103.972 35.4672C104.052 35.6282 104.074 35.8123 104.032 35.9875C103.936 36.1756 103.781 36.3277 103.592 36.4219L91.3424 43.5209L79.099 50.62C78.7495 50.7967 78.361 50.8821 77.9696 50.8682C77.5789 50.8755 77.1919 50.7905 76.8402 50.62L64.5907 43.5209L52.4094 36.3599C52.245 36.2889 52.1108 36.1623 52.0302 36.0024C51.9497 35.8424 51.9279 35.6593 51.9688 35.4849C52.0064 35.3842 52.0652 35.2928 52.1412 35.2167C52.2173 35.1407 52.3087 35.0819 52.4094 35.0443L64.659 27.9453L76.9023 20.9145Z" fill="url(#k_paint6_linear)"></path>
			<path fill-rule="evenodd" clip-rule="evenodd" d="M88.5169 31.8989C88.5972 31.8811 88.6228 31.8636 88.6763 31.8272C88.79 31.7477 88.8658 31.6463 88.8935 31.5361C88.9212 31.426 88.8997 31.3123 88.8318 31.2101C88.6899 31.1262 88.5135 31.075 88.3278 31.0638C88.1421 31.0527 87.9565 31.0821 87.7976 31.148C87.7708 31.1662 87.7452 31.1836 87.7196 31.1658C87.6929 31.1472 87.6393 31.1836 87.5858 31.2201C87.4543 31.2728 87.3483 31.3448 87.2424 31.4168C87.1921 31.4568 87.1287 31.4878 87.0573 31.5076L87.0305 31.5258C86.7127 31.7051 86.3414 31.8841 85.9712 32.0271C85.9129 32.0447 85.8498 32.0536 85.7858 32.0533C85.7219 32.053 85.6586 32.0435 85.6001 32.0254L85.3348 32.1323C84.6735 31.5273 83.8271 31.0114 82.9004 30.5869C81.948 30.1798 80.8874 29.8815 79.8021 29.7102L79.8012 29.4919L79.7745 29.4733C79.6954 29.4184 79.6165 29.3267 79.6153 29.2539C79.6459 28.9588 79.7176 28.6666 79.8292 28.3814L79.9096 28.218C79.9344 28.1666 79.9532 28.1191 79.9719 28.0719C79.9928 28.0191 80.0137 27.9663 80.0427 27.9087C80.0421 27.8901 80.0489 27.8762 80.0559 27.8622C80.0623 27.8491 80.0689 27.8359 80.0695 27.8185C80.0688 27.7962 80.0588 27.7944 80.0449 27.7919C80.0363 27.7903 80.0262 27.7884 80.016 27.7813C80.0687 27.4914 79.8049 27.2346 79.3814 27.1949C79.1953 27.1744 78.9568 27.228 78.8241 27.3182C78.6937 27.4124 78.6105 27.5327 78.5864 27.6621L78.5875 27.6981C78.5875 27.7349 78.5863 27.7708 78.5606 27.7882C78.5593 27.8978 78.5604 28.0073 78.5859 28.0987C78.6033 28.1358 78.5964 28.1732 78.5906 28.2047C78.5879 28.2193 78.5854 28.2327 78.5857 28.2442C78.6122 28.5171 78.5851 28.8263 78.5056 29.0993L78.5007 29.1089C78.4745 29.1598 78.4488 29.2098 78.3985 29.2441C78.3717 29.2623 78.3182 29.2987 78.2658 29.2975L78.2402 29.315L78.1596 29.5519C77.943 29.5504 77.7196 29.5535 77.4963 29.5566C77.283 29.5595 77.0698 29.5625 76.8625 29.5615C75.0948 29.7064 73.425 30.1867 72.0399 30.9489L71.8015 30.8201L71.8283 30.8387C71.6969 30.8558 71.5936 30.82 71.4897 30.7839L71.484 30.7819C71.1933 30.5801 70.9016 30.3774 70.6401 30.1189L70.6134 30.1003C70.5872 30.0822 70.5675 30.0592 70.5477 30.0363C70.528 30.0134 70.5082 29.9905 70.4821 29.9723C70.4429 29.9279 70.3976 29.8876 70.3523 29.8473C70.3049 29.8052 70.2575 29.7631 70.2171 29.7162L70.0578 29.6056C69.935 29.5071 69.7626 29.4441 69.5758 29.4293C69.389 29.4145 69.2016 29.4491 69.0516 29.526C68.8654 29.6159 68.7861 29.7784 68.7859 29.9608C68.7846 30.1071 68.8647 30.2348 68.9972 30.3268L69.1285 30.4181C69.2405 30.4898 69.3646 30.5519 69.4983 30.6029C69.5786 30.6218 69.632 30.659 69.6843 30.6953L69.7111 30.7139C70.0541 30.8801 70.3458 31.0828 70.6632 31.3033L70.6642 31.3047C70.7162 31.3773 70.7688 31.4509 70.7421 31.5405L70.7944 31.5769L70.9792 31.7421C70.7444 31.9342 70.5306 32.1396 70.3014 32.3597L70.2105 32.4469C69.2343 33.487 68.7433 34.7091 68.8024 35.9517L68.5372 35.9867L68.5104 36.0049C68.4992 36.0125 68.4927 36.0233 68.4851 36.0359C68.4745 36.0536 68.4617 36.0748 68.4312 36.0956C68.3788 36.1312 68.3008 36.149 68.2245 36.1665L68.2194 36.1677C67.7947 36.2007 67.3445 36.2161 66.9478 36.195C66.8903 36.1814 66.8334 36.1863 66.7865 36.1903C66.7679 36.192 66.7509 36.1934 66.736 36.1935C66.6554 36.193 66.5814 36.1879 66.5071 36.1828C66.4357 36.178 66.3639 36.173 66.2858 36.1721C66.2588 36.1719 66.2386 36.1765 66.2186 36.181C66.199 36.1854 66.1797 36.1898 66.1544 36.1896L66.1008 36.1892C65.9117 36.204 65.735 36.2603 65.5969 36.3498C65.4374 36.4582 65.357 36.5848 65.4104 36.7307C65.4508 36.8623 65.5592 36.9798 65.7156 37.0613C65.8719 37.1428 66.0655 37.1828 66.2603 37.1738C66.2859 37.1564 66.3126 37.175 66.3126 37.175C66.3126 37.175 66.4185 37.1749 66.4441 37.1575C66.5966 37.1336 66.7469 37.104 66.8944 37.0686L67.133 37.0167C67.5565 36.946 67.9812 36.8761 68.4047 36.879C68.5001 36.8797 68.6408 36.9118 68.7047 36.9722L68.6954 36.9721L68.7222 36.9907C68.7172 36.9842 68.7114 36.978 68.7047 36.9722L69.0107 36.9751C69.024 37.0025 69.0306 37.0253 69.0372 37.0479C69.0439 37.0709 69.0506 37.0938 69.0641 37.121C69.5394 38.5811 70.7293 39.8814 72.4768 40.7673L72.3184 40.9485C72.344 40.9663 72.3184 40.9838 72.3184 40.9838C72.3703 41.0555 72.3454 41.1433 72.3204 41.2316L72.3181 41.2396C72.1045 41.4964 71.8561 41.7386 71.5762 41.963C71.5227 41.9994 71.4691 42.0359 71.4423 42.0893C71.3893 42.1253 71.3431 42.166 71.2967 42.2066C71.2504 42.2473 71.2042 42.288 71.1512 42.324C71.14 42.3316 71.1333 42.3423 71.1255 42.3547C71.1145 42.3721 71.1014 42.393 71.0708 42.4138C71.044 42.432 71.044 42.432 71.044 42.4688C70.987 42.5231 70.9465 42.5848 70.9249 42.6503C70.9034 42.7158 70.9012 42.7837 70.9185 42.85C70.9357 42.9163 70.9721 42.9797 71.0256 43.0364C71.079 43.0931 71.1482 43.142 71.2294 43.1801C71.3735 43.2406 71.5442 43.2635 71.7099 43.2445C71.8756 43.2255 72.0252 43.1659 72.1311 43.0767C72.1846 43.0403 72.2114 43.0221 72.2371 42.9679C72.2639 42.9497 72.2639 42.9497 72.2371 42.9311C72.2192 42.9186 72.2658 42.8968 72.3042 42.8789C72.3205 42.8712 72.3354 42.8642 72.3431 42.8591C72.3914 42.8037 72.4299 42.7414 72.4647 42.6849C72.4868 42.649 72.5075 42.6155 72.5283 42.5876C72.5552 42.5326 72.5819 42.4776 72.6344 42.442L72.6623 42.423C72.8378 42.1559 73.0508 41.9013 73.2984 41.6629L73.324 41.6455C73.3998 41.5905 73.5043 41.5585 73.6149 41.5563C73.6417 41.5381 73.6672 41.5558 73.6672 41.5558L73.8803 41.3758C75.5029 41.9602 77.3403 42.1949 79.1508 42.0489C79.5556 42.0255 79.9552 41.9733 80.3435 41.8931L80.3968 42.1125C80.4223 42.1304 80.4479 42.1129 80.4479 42.1129C80.5112 42.1241 80.5702 42.1448 80.6206 42.1735C80.6711 42.2022 80.7118 42.2382 80.7398 42.2789C80.8942 42.5441 81.0093 42.8193 81.0832 43.1L81.11 43.1185C81.135 43.1705 81.1355 43.2054 81.1363 43.2697L81.1365 43.2827C81.1371 43.3233 81.1537 43.3755 81.1728 43.4359C81.188 43.4836 81.2047 43.5364 81.2164 43.5927C81.2164 43.6115 81.2231 43.6253 81.2298 43.6392C81.2362 43.6524 81.2425 43.6656 81.2431 43.6832C81.2431 43.6832 81.2699 43.7018 81.2431 43.72C81.3046 43.8483 81.4347 43.9561 81.6068 44.0216C81.7789 44.087 81.9803 44.1053 82.1699 44.0725C82.2568 44.0535 82.3374 44.0231 82.4073 43.983C82.5083 43.9093 82.5789 43.8184 82.6117 43.7194C82.6445 43.6204 82.6385 43.517 82.5941 43.4197C82.5941 43.4197 82.5685 43.4019 82.5953 43.3837C82.5706 43.3666 82.5698 43.3346 82.5688 43.3014L82.5687 43.2932C82.5291 43.2474 82.5027 43.2018 82.4763 43.1563C82.4499 43.1107 82.4234 43.0651 82.384 43.0193L82.2771 42.873C82.0663 42.6187 81.9356 42.3477 81.8044 42.0756L81.801 42.0685C81.7767 41.9817 81.7952 41.8921 81.8536 41.8138C81.8804 41.7956 81.8804 41.7956 81.8537 41.777L81.748 41.558C82.7683 41.2562 83.6944 40.8237 84.4776 40.2836C84.9538 39.9598 85.3788 39.5988 85.7236 39.1822C85.8994 39.0083 86.0471 38.8141 86.1876 38.6295C86.237 38.5645 86.2856 38.5007 86.3341 38.4394L86.6248 38.4958C86.6382 38.4867 86.6449 38.4821 86.6516 38.4822C86.6583 38.4822 86.665 38.4868 86.6783 38.4961C86.793 38.4571 86.9235 38.4453 87.0495 38.4627C87.453 38.5476 87.8434 38.6601 88.2148 38.7985L88.2404 38.8162L88.4532 38.8904C88.5858 38.9457 88.7184 39.001 88.8498 39.0203C88.8784 39.0201 88.899 39.0248 88.9196 39.0296C88.9385 39.0339 88.9574 39.0382 88.9824 39.0388C88.9824 39.0388 89.008 39.0565 89.0336 39.0391C89.1747 39.0703 89.325 39.0754 89.4693 39.0539C89.6135 39.0324 89.7465 38.9851 89.8551 38.9168C89.9178 38.8742 89.9479 38.8313 89.9836 38.7804C89.9936 38.7662 90.0041 38.7513 90.0158 38.7355C90.0466 38.6762 90.0579 38.6128 90.0489 38.5499C90.04 38.4869 90.0109 38.426 89.9639 38.3713C89.8629 38.2583 89.715 38.1684 89.5396 38.1134C89.514 38.0957 89.4883 38.1131 89.4883 38.1131C89.4616 38.0945 89.4081 38.0941 89.3557 38.0946C89.2115 38.0575 89.0591 38.0378 88.9056 38.0363C88.8284 38.0196 88.7476 38.0128 88.6671 38.0163L88.6148 37.98C88.1914 37.9403 87.7948 37.8473 87.4238 37.7352C87.3646 37.716 87.3123 37.6879 87.2708 37.653C87.2294 37.6181 87.1999 37.5773 87.1844 37.5336C87.1588 37.5159 87.1844 37.4985 87.1844 37.4985L86.8936 37.4053C87.4386 35.915 87.1771 34.3345 86.1575 32.9568L86.3985 32.8313C86.4253 32.813 86.3985 32.7945 86.3985 32.7945C86.4036 32.7186 86.4512 32.6473 86.5314 32.5954L86.557 32.578C86.8988 32.4169 87.2629 32.279 87.6441 32.1664L87.6697 32.149C87.7475 32.1364 87.8199 32.1117 87.8815 32.0769C87.921 32.0682 87.9589 32.0607 87.9955 32.0533C88.1062 32.0311 88.2053 32.0112 88.305 31.971C88.3167 31.963 88.3326 31.9585 88.3509 31.9531C88.3764 31.9459 88.4066 31.9371 88.4378 31.9159C88.4483 31.9088 88.4546 31.9045 88.4616 31.9019C88.4726 31.8979 88.4851 31.8982 88.5169 31.8989ZM75.0988 40.3283L77.2885 38.2213C77.5016 38.0764 77.8483 38.0243 78.0831 38.152C78.142 38.1715 78.1939 38.1997 78.2352 38.2346C78.2765 38.2694 78.3062 38.31 78.3222 38.3535L79.7427 40.7326C78.1733 40.9475 76.5433 40.8056 75.0988 40.3283ZM74.947 34.5796C75.1851 34.745 75.1567 35.0182 74.9167 35.1814C74.8552 35.2233 74.793 35.2436 74.719 35.2678C74.6971 35.2749 74.6743 35.2824 74.6501 35.2909L70.8773 35.712C70.9001 34.7824 71.2909 33.8754 72.0076 33.0881L72.4358 32.6516L74.947 34.5796ZM75.3993 37.0139C75.4357 37.0637 75.4572 37.1179 75.4625 37.1734C75.4888 37.2641 75.4617 37.3193 75.3818 37.4103L73.5353 39.6831C72.3285 38.9523 71.4731 37.987 71.0825 36.9153L74.8012 36.7864C74.8817 36.7811 74.963 36.787 75.0402 36.8037C75.1175 36.8205 75.1891 36.8477 75.2508 36.8838C75.3124 36.9199 75.363 36.9641 75.3993 37.0139ZM79.1592 36.4048L78.0942 36.6564L77.1402 36.2496L77.0131 35.4644L77.8128 34.9205L78.9539 35.0163L79.5343 35.677L79.1592 36.4048ZM77.5295 33.2961C77.449 33.4961 77.1565 33.6583 76.8384 33.6208C76.7892 33.6219 76.7402 33.6159 76.6945 33.6033C76.6488 33.5906 76.6074 33.5716 76.5729 33.5474L73.7411 31.8007C75.0014 31.1102 76.5686 30.7375 78.1824 30.7445L77.5295 33.2961ZM80.5714 37.3959C80.4367 37.4203 80.3194 37.4776 80.2415 37.557C80.1635 37.6364 80.1303 37.7326 80.1479 37.8277L81.1814 40.3263C81.867 40.075 82.5542 39.753 83.1089 39.3757C83.5048 39.1065 83.8233 38.8188 84.1143 38.512C84.2472 38.3506 84.3798 38.2241 84.5123 38.0975L80.9677 37.3792C80.8083 37.3786 80.7021 37.3782 80.5714 37.3959ZM79.6986 30.9752L79.4947 33.5588C79.4952 33.6289 79.5221 33.6977 79.5729 33.7584C79.755 33.9583 80.1229 34.0319 80.4126 33.906L83.6298 32.6897C83.1346 32.268 82.5414 31.9055 81.8743 31.617C81.2025 31.3259 80.4683 31.1094 79.6986 30.9752ZM81.2954 35.3921C81.2444 35.4841 81.2425 35.5856 81.29 35.6784C81.3375 35.7713 81.4314 35.8497 81.5549 35.8995L85.0466 36.9066C85.2875 36.1938 85.293 35.4528 85.0627 34.7382C84.9867 34.395 84.8033 34.0506 84.5714 33.706L81.4839 35.1944C81.4055 35.2526 81.3417 35.3195 81.2954 35.3921Z" fill="white"></path>
			<path d="M13.1751 41.0859C13.1751 40.9523 13.2705 40.8187 13.4423 40.7233L14.9216 39.8643L13.3946 38.9767C13.3278 38.9386 13.2515 38.9386 13.1846 38.9672L10.2795 40.666C10.2795 40.666 10.0401 40.8097 10.04 41.0057C10.04 41.2017 10.2795 41.3314 10.2795 41.3314L13.1846 43.0233C13.2515 43.0615 13.3278 43.0615 13.3946 43.0329L14.7785 42.2216L13.4423 41.4486C13.261 41.3436 13.1751 41.2195 13.1751 41.0859Z" fill="white"></path>
			<path d="M142.718 40.9146C142.718 41.0482 142.622 41.1818 142.45 41.2772L140.971 42.1362L142.498 43.0238C142.565 43.0619 142.641 43.0619 142.708 43.0333L145.613 41.3345C145.613 41.3345 145.853 41.1908 145.853 40.9948C145.853 40.7988 145.613 40.6691 145.613 40.6691L142.708 38.9772C142.641 38.939 142.565 38.939 142.498 38.9676L141.114 39.7788L142.45 40.5519C142.632 40.6569 142.718 40.7809 142.718 40.9146Z" fill="white"></path>
			<path d="M78.7313 4.11271L79.9231 4.79887L81.3044 3.98632C81.3495 3.95923 81.3495 3.90506 81.2863 3.86895L78.5536 2.26969C78.5536 2.26969 78.2009 2.03223 77.9928 2.03223C77.7847 2.03223 77.4483 2.26969 77.4483 2.26969L74.6956 3.87797C74.6505 3.90506 74.6505 3.95923 74.7137 3.99534L76.2124 4.87109L77.5305 4.11271C77.9097 3.92312 78.3521 3.92312 78.7313 4.11271Z" fill="white"></path>
			<path d="M77.2687 77.9122L76.077 77.226L74.6957 78.0386C74.6505 78.0657 74.6505 78.1198 74.7137 78.156L77.4464 79.7552C77.4464 79.7552 77.7991 79.9927 78.0073 79.9927C78.2154 79.9927 78.5518 79.7552 78.5518 79.7552L81.3044 78.1469C81.3496 78.1198 81.3496 78.0657 81.2864 78.0296L79.7877 77.1538L78.4695 77.9122C78.0903 78.1018 77.6479 78.1018 77.2687 77.9122Z" fill="white"></path>
		</g>
	<defs>
	<linearGradient id="k_paint0_linear" x1="78.1662" y1="74.9887" x2="78.1662" y2="155.322" gradientUnits="userSpaceOnUse">
	<stop stop-color="#13151E" stop-opacity="0"></stop>
	<stop offset="1" stop-color="#131532"></stop>
	</linearGradient>
	<linearGradient id="k_paint1_linear" x1="7.83838" y1="77.9297" x2="147.855" y2="77.9297" gradientUnits="userSpaceOnUse">
	<stop offset="0.48" stop-color="#D2D8E6"></stop>
	<stop offset="0.52" stop-color="#E0E4EF"></stop>
	</linearGradient>
	<linearGradient id="k_paint2_linear" x1="7.89594" y1="77.9106" x2="147.912" y2="77.9106" gradientUnits="userSpaceOnUse">
	<stop stop-color="#BBC1D4" stop-opacity="0"></stop>
	<stop offset="0.35" stop-color="#BBC1D4" stop-opacity="0.7"></stop>
	<stop offset="1" stop-color="#BBC1D4" stop-opacity="0"></stop>
	</linearGradient>
	<linearGradient id="k_paint3_linear" x1="7.89606" y1="78.4929" x2="147.912" y2="78.4929" gradientUnits="userSpaceOnUse">
	<stop stop-color="#373F6E"></stop>
	<stop offset="1" stop-color="#5A6291"></stop>
	</linearGradient>
	<linearGradient id="k_paint4_linear" x1="8" y1="40.9733" x2="148" y2="40.9733" gradientUnits="userSpaceOnUse">
	<stop offset="0.00513965" stop-color="#3F4B75"></stop>
	<stop offset="1" stop-color="#636F99"></stop>
	</linearGradient>
	<linearGradient id="k_paint5_linear" x1="4274.12" y1="-6979.9" x2="8657.38" y2="-6979.9" gradientUnits="userSpaceOnUse">
	<stop stop-color="#1D53DA"></stop>
	<stop offset="1" stop-color="#3F75FC"></stop>
	</linearGradient>
	<linearGradient id="k_paint6_linear" x1="4272.4" y1="-10041.2" x2="8649.15" y2="-10041.2" gradientUnits="userSpaceOnUse">
	<stop stop-color="#0397F6"></stop>
	<stop offset="1" stop-color="#00BAFF"></stop>
	</linearGradient>
	</defs>
	</svg>