<?xml version="1.0" encoding="utf-8"?>
<!-- Generator: Adobe Illustrator 25.2.0, SVG Export Plug-In . SVG Version: 6.00 Build 0)  -->
<svg version="1.1" id="Warstwa_1" xmlns="http://www.w3.org/2000/svg" xmlns:xlink="http://www.w3.org/1999/xlink" x="0px" y="0px"
	 viewBox="0 0 28 28" enable-background="new 0 0 28 28" xml:space="preserve">
<path id="Kształt_517" fill-rule="evenodd" clip-rule="evenodd" fill="#FFFFFF" d="M20.9,17.5h2.1V26H3.9v-8.6H6v6.4h14.9V17.5
	L20.9,17.5z M8.4,16.8l10.5,2.2l0.4-2.1L8.8,14.7L8.4,16.8z M9.7,11.8l9.7,4.5l0.9-1.9l-9.7-4.5L9.7,11.8z M12.4,7l8.2,6.9l1.4-1.7
	l-8.2-6.9L12.4,7z M17.7,2L16,3.2l6.4,8.6l1.7-1.3L17.7,2z M8.2,21.8h10.6v-2.1H8.2V21.8z"/>
</svg>
